<svg width="100" height="100" viewBox="0 0 100 100" fill="none" xmlns="http://www.w3.org/2000/svg">
<path d="M0 32C0 8 8 0 32 0H68C92 0 100 8 100 32V68C100 92 92 100 68 100H32C8 100 0 92 0 68V32Z" fill="url(#paint0_linear_2_23)"/>
<path d="M56.7493 36.7273V43.8864H34.1726V36.7273H56.7493ZM39.7464 27.3182H49.0021V64.1875C49.0021 65.4318 49.1896 66.3864 49.5646 67.0511C49.9567 67.6989 50.468 68.142 51.0987 68.3807C51.7294 68.6193 52.4283 68.7386 53.1953 68.7386C53.7749 68.7386 54.3033 68.696 54.7805 68.6108C55.2749 68.5256 55.6499 68.4489 55.9055 68.3807L57.4652 75.6165C56.9709 75.7869 56.2635 75.9744 55.343 76.179C54.4396 76.3835 53.3317 76.5028 52.0192 76.5369C49.701 76.6051 47.6129 76.2557 45.755 75.4886C43.897 74.7045 42.4226 73.4943 41.3317 71.858C40.2578 70.2216 39.7294 68.1761 39.7464 65.7216V27.3182ZM70.1918 76.5625C68.6406 76.5625 67.3111 76.017 66.2031 74.9261C65.0952 73.8352 64.5497 72.5057 64.5668 70.9375C64.5497 69.4034 65.0952 68.0909 66.2031 67C67.3111 65.9091 68.6406 65.3636 70.1918 65.3636C71.6918 65.3636 72.9957 65.9091 74.1037 67C75.2287 68.0909 75.7997 69.4034 75.8168 70.9375C75.7997 71.9773 75.527 72.9233 74.9986 73.7756C74.4872 74.6278 73.8054 75.3097 72.9531 75.821C72.1179 76.3153 71.1974 76.5625 70.1918 76.5625Z" fill="white"/>
<defs>
<linearGradient id="paint0_linear_2_23" x1="0" y1="50" x2="100" y2="50" gradientUnits="userSpaceOnUse">
<stop stop-color="#00D2FF"/>
<stop offset="1" stop-color="#3A7BD5"/>
</linearGradient>
</defs>
</svg>
